<svg id="Layer_1" data-name="Layer 1" xmlns="http://www.w3.org/2000/svg" viewBox="0 0 122.88 116.52"><defs><style>.cls-1{fill-rule:evenodd;}</style></defs><title>employee</title><path class="cls-1" d="M28.22,21C43.65,2,61.43-8.4,74.78,8.56,90.87,9.41,97.32,35,84.49,45.73l-.08.63a7.53,7.53,0,0,1,1.49-.29,4.75,4.75,0,0,1,2.63.5,3.71,3.71,0,0,1,1.82,2.22,6.7,6.7,0,0,1-.08,3.81l-2,5.7A4.08,4.08,0,0,1,87,60.38a3.72,3.72,0,0,1-2.72.66,5.32,5.32,0,0,1-.56-.06c-.13,6.33-3.22,9.25-7.27,13.06,3.17,10.75,10.85,12.42,18.32,14l.64.14c6,1.2,14,2.29,16.9,3.9a16.8,16.8,0,0,1,5.3,4.48c3.64,4.81,4,14,5.28,19.91H0c1.32-5.89,1.64-15.11,5.28-19.91a16.44,16.44,0,0,1,5.3-4.48c7.28-4,25.89-4.06,33.31-8.67a17.1,17.1,0,0,0,4.35-7.71l-.17-.16-1.53-1.33c-4-3.42-7.3-6.29-7.93-13.26h-.35a4.76,4.76,0,0,1-2.34-.62,6.31,6.31,0,0,1-2.57-3.12,14.19,14.19,0,0,1-1-4.7c0-.48,0-1.45,0-2.38h0a18.39,18.39,0,0,1,.13-2,1.26,1.26,0,0,1,.1-.38c.83-2.31,2.11-3.07,3.79-3L35.22,44c-.6-7.51,1.16-20.54-7-23ZM46.55,85.27l7.74,20.33,4.46-12.69-2.19-2.39q-1.47-2.16-.65-3.77c1.18-2.34,3.63-1.91,5.92-1.91s5.35-.45,6.1,2.54a4,4,0,0,1-.77,3.14L65,92.91l4.45,12.69,7.88-22.87a21.86,21.86,0,0,1-3.23-6.06,16.34,16.34,0,0,1-5.21,3.1,16.44,16.44,0,0,1-12,.94,17,17,0,0,1-5.34-2.1c-.28-.17-.55-.34-.81-.53a19.62,19.62,0,0,1-4.16,7.19Zm27-12.74a1.66,1.66,0,0,1,.19-.18l.55-.52c3.92-3.68,6.81-6.4,6.26-13a1.5,1.5,0,0,1,.25-1A1.53,1.53,0,0,1,83,57.42a3.72,3.72,0,0,0,.76.4l.06,0a2.09,2.09,0,0,0,.65.15,3,3,0,0,0,.67,0,3.92,3.92,0,0,0,.28-.71l1.95-5.52a3.7,3.7,0,0,0,.12-2,.71.71,0,0,0-.35-.46,1.85,1.85,0,0,0-1-.13,5.42,5.42,0,0,0-2.74,1.15A1.53,1.53,0,0,1,81,48.8c1.44-8.41.78-13.9-1-17.63a15.11,15.11,0,0,0-6.79-6.75c-6,4.62-10.27,5.15-14.5,5.67-3.5.43-7,.86-11.63,4.06a11.21,11.21,0,0,0-4.41,5.52,13.77,13.77,0,0,0-.19,7.51,1.55,1.55,0,0,1,0,1,1.52,1.52,0,0,1-2,.91l-1.4-.5c-1.81-.64-3.09-.93-3.58.21,0,.36-.07.93-.08,1.52,0,.84,0,1.71,0,2.15a11.25,11.25,0,0,0,.8,3.64,3.4,3.4,0,0,0,1.27,1.67,1.69,1.69,0,0,0,.86.22,4.21,4.21,0,0,0,1.25-.2,1.39,1.39,0,0,1,.46-.08,1.51,1.51,0,0,1,1.56,1.49c.17,6.93,3.25,9.57,7,12.79.58.5,1.18,1,1.56,1.36a20.39,20.39,0,0,0,7.56,4.45,17.94,17.94,0,0,0,6,.19A18.87,18.87,0,0,0,67.56,77a20,20,0,0,0,5.18-3.67l.84-.81ZM71,45.1a2.54,2.54,0,1,1-2.53,2.54A2.54,2.54,0,0,1,71,45.1ZM58.82,60.25a1.15,1.15,0,0,1-.39-.76,1.12,1.12,0,0,1,.26-.81,1.08,1.08,0,0,1,.76-.4,1.13,1.13,0,0,1,.82.26,1.77,1.77,0,0,0,.55.31,1.61,1.61,0,0,0,.59.14,2,2,0,0,0,.62-.13,2.21,2.21,0,0,0,.56-.31l0,0a1.15,1.15,0,0,1,.79-.23,1.12,1.12,0,0,1,.74.38l0,.05a1.13,1.13,0,0,1,.24.8,1.16,1.16,0,0,1-.41.76,4.52,4.52,0,0,1-1.26.71,3.88,3.88,0,0,1-1.38.25A4.27,4.27,0,0,1,60,61a4.15,4.15,0,0,1-1.2-.7Zm-7-15.15a2.54,2.54,0,1,1-2.53,2.54,2.54,2.54,0,0,1,2.53-2.54ZM53.21,64H68.7c1.43,0,1.8.71,1.32,1.76-4.14,9.34-17.78,4.74-18-.13A1.46,1.46,0,0,1,53.21,64ZM76.79,43.86A1.1,1.1,0,1,1,75,45.18a5,5,0,0,0-2.82-2,6,6,0,0,0-3.27.29,1.08,1.08,0,0,1-1.39-.69,1.1,1.1,0,0,1,.69-1.4A8.12,8.12,0,0,1,72.71,41a7.19,7.19,0,0,1,4.08,2.87ZM50.17,41a8,8,0,0,1,4.46.36,1.1,1.1,0,1,1-.69,2.09,5.94,5.94,0,0,0-3.27-.3,5,5,0,0,0-2.82,2,1.1,1.1,0,1,1-1.76-1.32A7.1,7.1,0,0,1,50.17,41ZM55.1,67.32l-.7-1.82H67.85l-.61,1.82Z"/></svg>